<svg width="50" height="51" viewBox="0 0 50 51" fill="none" xmlns="http://www.w3.org/2000/svg">
<g clip-path="url(#clip0_466_75)">
<path d="M0 25.9091C0 36.6581 6.78438 45.8217 16.3042 49.354L18.4782 25.909L16.3042 2.46405C6.78438 5.99647 0 15.1599 0 25.9091Z" fill="#6DA544"/>
<path d="M50 25.9091C50 12.102 38.807 0.909058 25 0.909058C21.942 0.909058 19.0126 1.45916 16.3042 2.46404V49.3541C19.0126 50.3591 21.942 50.9091 25 50.9091C38.807 50.9091 50 39.7161 50 25.9091Z" fill="#D80027"/>
<path d="M16.3045 34.6047C21.1069 34.6047 25.0001 30.7115 25.0001 25.909C25.0001 21.1066 21.1069 17.2134 16.3045 17.2134C11.502 17.2134 7.60889 21.1066 7.60889 25.909C7.60889 30.7115 11.502 34.6047 16.3045 34.6047Z" fill="#FFDA44"/>
<path d="M11.4131 21.5612V26.996C11.4131 29.6974 13.6029 31.8873 16.3044 31.8873C19.0059 31.8873 21.1957 29.6974 21.1957 26.996V21.5612H11.4131Z" fill="#D80027"/>
<path d="M16.3043 28.6264C15.4053 28.6264 14.6738 27.895 14.6738 26.996V24.8221H17.9347V26.9961C17.9347 27.895 17.2032 28.6264 16.3043 28.6264Z" fill="#F0F0F0"/>
</g>
<defs>
<clipPath id="clip0_466_75">
<rect width="50" height="50" fill="white" transform="translate(0 0.909058)"/>
</clipPath>
</defs>
</svg>
